name rise30.2954peak35.7071fall66.7804.mot
datacolumns 19
datarows 18
range 2.94500300000000 2.97332800000000
endheader
time	ground_force1_vx	ground_force1_vy	ground_force1_vz	ground_force1_px	ground_force1_py	ground_force1_pz	ground_force2_vx	ground_force2_vy	ground_force2_vz	ground_force2_px	ground_force2_py	ground_force2_pz	ground_torque1_x	ground_torque1_y	ground_torque1_z	ground_torque2_x	ground_torque2_y	ground_torque2_z	
2.94500300000000	22.92957400000000	693.74700700000005	42.54169600000000	0.21567400000000	0.00000000000000	0.08700400000000	0.00000000000000	0.00000000000000	0.00000000000000	0.00000000000000	0.00000000000000	0.00000000000000	0.00000000000000	15.85222000000000	0.00000000000000	0.00000000000000	0.00000000000000	0.00000000000000	
2.94665500000000	22.49586400000000	694.33325000000002	42.54187700000000	0.21472900000000	0.00000000000000	0.08696300000000	0.00000000000000	0.00000000000000	0.00000000000000	0.00000000000000	0.00000000000000	0.00000000000000	0.00000000000000	15.86840600000000	0.00000000000000	0.00000000000000	0.00000000000000	0.00000000000000	
2.94832600000000	22.04919800000000	694.95721800000001	42.54606500000000	0.21376000000000	0.00000000000000	0.08692400000000	0.00000000000000	0.00000000000000	0.00000000000000	0.00000000000000	0.00000000000000	0.00000000000000	0.00000000000000	15.88739700000000	0.00000000000000	0.00000000000000	0.00000000000000	0.00000000000000	
2.94999300000000	21.58939200000000	695.61780699999997	42.55399300000000	0.21276700000000	0.00000000000000	0.08688700000000	0.00000000000000	0.00000000000000	0.00000000000000	0.00000000000000	0.00000000000000	0.00000000000000	0.00000000000000	15.90910100000000	0.00000000000000	0.00000000000000	0.00000000000000	0.00000000000000	
2.95166000000000	21.11630300000000	696.31394999999998	42.56540200000000	0.21175100000000	0.00000000000000	0.08685200000000	0.00000000000000	0.00000000000000	0.00000000000000	0.00000000000000	0.00000000000000	0.00000000000000	0.00000000000000	15.93342800000000	0.00000000000000	0.00000000000000	0.00000000000000	0.00000000000000	
2.95332200000000	20.62982400000000	697.04461800000001	42.58004300000000	0.21071100000000	0.00000000000000	0.08682000000000	0.00000000000000	0.00000000000000	0.00000000000000	0.00000000000000	0.00000000000000	0.00000000000000	0.00000000000000	15.96029400000000	0.00000000000000	0.00000000000000	0.00000000000000	0.00000000000000	
2.95499600000000	20.12989200000000	697.80882399999996	42.59767900000000	0.20965000000000	0.00000000000000	0.08678900000000	0.00000000000000	0.00000000000000	0.00000000000000	0.00000000000000	0.00000000000000	0.00000000000000	0.00000000000000	15.98962000000000	0.00000000000000	0.00000000000000	0.00000000000000	0.00000000000000	
2.95666000000000	19.61648100000000	698.60562900000002	42.61808000000000	0.20856700000000	0.00000000000000	0.08676100000000	0.00000000000000	0.00000000000000	0.00000000000000	0.00000000000000	0.00000000000000	0.00000000000000	0.00000000000000	16.02132900000000	0.00000000000000	0.00000000000000	0.00000000000000	0.00000000000000	
2.95832500000000	19.08960400000000	699.43414399999995	42.64103100000000	0.20746500000000	0.00000000000000	0.08673500000000	0.00000000000000	0.00000000000000	0.00000000000000	0.00000000000000	0.00000000000000	0.00000000000000	0.00000000000000	16.05535000000000	0.00000000000000	0.00000000000000	0.00000000000000	0.00000000000000	
2.95999600000000	18.54931300000000	700.29353100000003	42.66633000000000	0.20634300000000	0.00000000000000	0.08671000000000	0.00000000000000	0.00000000000000	0.00000000000000	0.00000000000000	0.00000000000000	0.00000000000000	0.00000000000000	16.09161200000000	0.00000000000000	0.00000000000000	0.00000000000000	0.00000000000000	
2.96165700000000	17.99569800000000	701.18300999999997	42.69378400000000	0.20520300000000	0.00000000000000	0.08668800000000	0.00000000000000	0.00000000000000	0.00000000000000	0.00000000000000	0.00000000000000	0.00000000000000	0.00000000000000	16.13005100000000	0.00000000000000	0.00000000000000	0.00000000000000	0.00000000000000	
2.96333100000000	17.42888700000000	702.10185600000000	42.72321600000000	0.20404600000000	0.00000000000000	0.08666700000000	0.00000000000000	0.00000000000000	0.00000000000000	0.00000000000000	0.00000000000000	0.00000000000000	0.00000000000000	16.17060500000000	0.00000000000000	0.00000000000000	0.00000000000000	0.00000000000000	
2.96499800000000	16.84904100000000	703.04940299999998	42.75446100000000	0.20287400000000	0.00000000000000	0.08664800000000	0.00000000000000	0.00000000000000	0.00000000000000	0.00000000000000	0.00000000000000	0.00000000000000	0.00000000000000	16.21321400000000	0.00000000000000	0.00000000000000	0.00000000000000	0.00000000000000	
2.96666200000000	16.25635900000000	704.02504599999997	42.78736900000000	0.20168800000000	0.00000000000000	0.08663000000000	0.00000000000000	0.00000000000000	0.00000000000000	0.00000000000000	0.00000000000000	0.00000000000000	0.00000000000000	16.25782200000000	0.00000000000000	0.00000000000000	0.00000000000000	0.00000000000000	
2.96833500000000	15.65107300000000	705.02823999999998	42.82180100000000	0.20049000000000	0.00000000000000	0.08661300000000	0.00000000000000	0.00000000000000	0.00000000000000	0.00000000000000	0.00000000000000	0.00000000000000	0.00000000000000	16.30437200000000	0.00000000000000	0.00000000000000	0.00000000000000	0.00000000000000	
2.97001100000000	15.03344800000000	706.05849899999998	42.85763500000000	0.19928100000000	0.00000000000000	0.08659800000000	0.00000000000000	0.00000000000000	0.00000000000000	0.00000000000000	0.00000000000000	0.00000000000000	0.00000000000000	16.35281200000000	0.00000000000000	0.00000000000000	0.00000000000000	0.00000000000000	
2.97166300000000	14.40377700000000	707.11539900000002	42.89476000000000	0.19806200000000	0.00000000000000	0.08658400000000	0.00000000000000	0.00000000000000	0.00000000000000	0.00000000000000	0.00000000000000	0.00000000000000	0.00000000000000	16.40309100000000	0.00000000000000	0.00000000000000	0.00000000000000	0.00000000000000	
2.97332800000000	13.76238800000000	708.19857400000001	42.93308100000000	0.19683600000000	0.00000000000000	0.08657100000000	0.00000000000000	0.00000000000000	0.00000000000000	0.00000000000000	0.00000000000000	0.00000000000000	0.00000000000000	16.45515600000000	0.00000000000000	0.00000000000000	0.00000000000000	0.00000000000000	
